<svg width="36" height="54" viewBox="0 0 36 54" fill="none" xmlns="http://www.w3.org/2000/svg">
<path fill-rule="evenodd" clip-rule="evenodd" d="M24.1639 0.575159C24.2798 0.517648 24.3378 0.402627 24.2219 0.287605C24.1639 0.230095 24.1639 0.172582 24.106 0.115071C24.106 0.0575607 24.106 0.0575624 24.1639 5.17038e-05H24.2219C24.5116 0.287605 24.7434 0.57516 25.0911 0.805203C25.2649 1.09276 25.4967 1.20778 25.7285 1.43782C25.8444 1.55284 25.9603 1.61035 26.0183 1.72537C26.1341 1.8404 26.308 1.95542 26.4239 2.07044C26.5398 2.24297 26.7136 2.35799 26.8875 2.47301C27.0033 2.53052 27.1192 2.64555 27.2351 2.81808C27.2931 2.87559 27.2931 2.9331 27.351 2.9331C27.5828 2.99061 27.6987 3.22065 27.8726 3.4507C27.9884 3.62323 28.1623 3.85327 28.3361 4.0258C28.51 4.25585 28.6838 4.48589 28.7997 4.71593C28.9156 4.88846 29.0315 5.061 29.2053 5.17602C29.2633 5.23353 29.3792 5.29104 29.3792 5.40606C29.7848 6.03868 30.1904 6.6713 30.5961 7.30391C30.8279 7.64898 31.0017 8.05155 31.1755 8.45413C31.2335 8.56915 31.2335 8.62666 31.2914 8.74168C31.5232 9.02924 31.6971 9.3743 31.8709 9.71937C32.3345 10.4095 32.7401 11.0996 33.0878 11.8473C33.1457 11.9623 33.2037 12.0773 33.2616 12.1923C33.4355 12.5374 33.6093 12.8249 33.7252 13.2275C33.7832 13.4576 33.957 13.6301 34.0149 13.8601C34.0729 14.0902 34.0729 14.3202 34.1888 14.4928C34.4785 15.2404 34.5944 16.0455 34.7683 16.7932C34.8262 17.2533 34.9421 17.7134 35 18.1159C35.058 18.461 35 18.8636 35.058 19.2661C35.058 19.6112 35.1159 19.9563 35.058 20.3589C35 20.7039 34.9421 20.9915 34.8841 21.3365C34.8841 21.394 34.8262 21.5091 34.8262 21.5666C34.8262 21.7391 34.8841 21.9116 34.8841 22.0267C34.8841 22.1992 34.7683 22.3142 34.7683 22.4867C34.8262 22.8318 34.7103 23.1769 34.5944 23.4644C34.4206 23.982 34.2467 24.4996 34.1308 25.0747C34.1308 25.1898 34.0729 25.3048 34.0149 25.4198C33.7832 25.9374 33.6093 26.5125 33.3775 27.0301C33.0878 27.6627 32.7981 28.2378 32.4504 28.8129C32.3924 28.9279 32.2765 29.1005 32.2186 29.2155C32.1606 29.5031 31.9868 29.7906 31.755 30.0207C31.6971 30.0782 31.6391 30.1932 31.5812 30.2507C31.5232 30.3082 31.5232 30.4232 31.4653 30.4807C31.2914 30.7108 31.1176 30.9408 31.0017 31.1709C30.8279 31.4009 30.7699 31.6885 30.5961 31.861C30.4802 31.976 30.4222 32.1486 30.3643 32.2636C30.1904 32.6086 30.0166 32.8962 29.7269 33.1837C29.3212 33.6438 28.9735 34.1614 28.6838 34.679C28.6259 34.7365 28.6259 34.8516 28.5679 34.8516C28.2782 35.0816 28.1043 35.3692 27.9305 35.5992C27.8146 35.7142 27.7567 35.8292 27.6408 35.8867C27.409 36.1168 27.2351 36.3468 27.0034 36.5194C26.9454 36.5769 26.8875 36.6344 26.8295 36.6919C26.6557 36.8644 26.4239 37.037 26.25 37.2095C26.1341 37.382 25.9024 37.5546 25.7285 37.6696C25.4388 37.8996 25.0911 38.1872 24.8014 38.4172C24.5116 38.6473 24.2798 38.8198 23.9901 39.0498C23.8742 39.1073 23.7583 39.2224 23.6424 39.2799C23.4106 39.3949 23.1788 39.5674 23.005 39.7975C23.005 39.855 22.9471 39.855 22.8891 39.855C22.4835 40.085 22.1937 40.3726 21.7881 40.5451C21.3245 40.7176 20.9189 41.0052 20.4553 41.2352C19.5282 41.6953 18.601 42.0979 17.558 42.443C16.9206 42.673 16.2832 42.8455 15.6457 42.9031C15.5298 42.9031 15.356 42.9606 15.2401 43.0181C15.1242 43.0756 15.0663 43.0756 14.9504 43.0756C14.8924 43.0756 14.8924 43.0756 14.8345 43.0756C14.4868 43.2481 14.0232 43.1906 13.6755 43.4207C13.6755 43.4782 13.6755 43.5357 13.7335 43.5932C13.9073 43.6507 14.0232 43.7657 14.1971 43.8232C14.6027 43.9958 15.356 44.2833 15.7616 44.5134C15.8775 44.5709 15.9355 44.5709 16.0514 44.6284C16.1673 44.6859 16.2832 44.6859 16.399 44.7434C16.8626 44.9734 17.2683 45.2035 17.7898 45.3185C18.0795 45.4335 18.2533 45.6061 18.4851 45.7786C18.601 45.8361 18.659 45.9511 18.7749 46.0086C19.1226 46.2387 19.4702 46.5262 19.702 46.8138C19.8179 46.9863 19.9918 47.1589 20.1077 47.3314C20.1656 47.3889 20.2235 47.4464 20.2235 47.5039C20.2235 47.6764 20.3394 47.849 20.4553 47.964C20.5133 48.0215 20.5712 48.1365 20.6871 48.2516C20.7451 48.3091 20.7451 48.4241 20.7451 48.5391C20.7451 48.6541 20.7451 48.7116 20.861 48.8267C21.0348 48.9992 21.1507 49.1717 21.3245 49.4018C21.4404 49.5743 21.4984 49.6893 21.4984 49.9194C21.4984 50.0919 21.5563 50.2644 21.6722 50.437C21.7302 50.552 21.7881 50.7245 21.8461 50.8395C21.904 50.9546 21.962 51.0696 22.0199 51.2421C22.2517 51.5297 22.3096 51.7022 22.4255 51.9322C22.4835 52.0473 22.4835 52.2198 22.5994 52.3348C22.7153 52.5649 22.7732 52.7374 22.7732 53.0249C22.7732 53.0825 22.7732 53.1975 22.7732 53.255C22.7732 53.255 22.7153 53.3125 22.6573 53.3125C22.5994 53.3125 22.5994 53.3125 22.5414 53.3125C22.4835 53.255 22.4255 53.255 22.3096 53.1975C21.6722 53.0249 21.1507 52.6224 20.6292 52.3348C20.3394 52.2198 20.1077 52.0473 19.8759 51.8172C19.5861 51.5297 19.2384 51.3571 18.8908 51.1271C18.8328 51.0121 18.7169 51.0121 18.659 50.9546C18.2533 50.6095 17.8477 50.3795 17.3841 50.0344C16.9785 49.7468 16.5729 49.4593 16.1093 49.2292C15.9355 49.1142 15.7037 48.9992 15.4719 48.8842C15.0663 48.7116 14.6606 48.4816 14.313 48.3091C13.5017 47.964 12.6904 47.5039 11.8792 47.2164C11.6474 47.1589 11.4156 46.9863 11.1259 46.9863C11.0679 46.9863 11.0679 46.9288 11.01 46.9288C10.4884 46.6413 9.96692 46.4687 9.4454 46.2387C9.32951 46.1812 9.27156 46.1812 9.15567 46.1237C8.80798 45.9511 8.4603 45.8361 8.11262 45.7211C7.93878 45.6636 7.76494 45.6061 7.53315 45.5486C7.41726 45.491 7.30136 45.491 7.18547 45.4335C7.01163 45.376 6.77984 45.3185 6.606 45.261C6.4901 45.2035 6.37421 45.2035 6.25832 45.146C5.85269 45.031 5.38911 44.9159 4.98348 44.8009C4.57785 44.6859 4.11428 44.5709 3.70865 44.4558C3.41891 44.3408 3.18712 44.3408 2.89739 44.2258C2.78149 44.1683 2.6656 44.2258 2.54971 44.2258C1.97024 44.3983 1.33282 44.6284 0.695402 44.7434C0.637455 44.7434 0.52156 44.8009 0.463613 44.8009C0.347719 44.8009 0.231825 44.8009 0.173878 44.6859C0.115931 44.6284 0.0579837 44.5709 0.0579837 44.5134C3.66313e-05 44.4558 3.75164e-05 44.3983 3.75164e-05 44.3408C0.0579845 43.9383 3.79567e-05 43.5357 0.115932 43.1906C0.231826 42.9031 0.34772 42.6155 0.579508 42.3855C0.753349 42.2704 0.869243 42.0979 0.985137 41.9254C1.15898 41.5803 1.44871 41.3503 1.73845 41.1202C1.7964 41.0627 1.91229 41.0052 1.97024 40.9477C2.02818 40.8902 2.08613 40.8327 2.14408 40.8327C2.49176 40.7176 2.78149 40.4876 3.07123 40.3151C3.36096 40.2001 3.59275 40.0275 3.82454 39.7975C3.94043 39.74 3.99838 39.6249 4.05633 39.5674C4.17222 39.3949 4.34606 39.3374 4.5199 39.2799C4.6358 39.2799 4.69375 39.2224 4.80964 39.1649C5.09937 38.9348 5.44706 38.7623 5.73679 38.5322C6.08448 38.3022 6.37421 38.1297 6.72189 37.9571C7.76494 37.4395 8.75004 36.7494 9.73514 36.1168C10.2567 35.7717 10.7782 35.4267 11.2997 35.1391C11.5315 34.9666 11.8212 34.8516 11.9951 34.6215C12.3428 34.449 12.5745 34.1039 12.8643 33.9314C13.3279 33.5863 13.7335 33.1837 14.1971 32.8387C14.4288 32.6661 14.5447 32.4936 14.7765 32.3211C14.9504 32.2061 15.0663 32.0335 15.2401 31.976C15.4719 31.861 15.6457 31.6885 15.8196 31.5159C16.0514 31.2859 16.3411 31.1134 16.7467 31.1134C16.8626 31.1134 16.9206 31.0558 17.0365 30.9983C17.1524 30.8833 17.2682 30.7108 17.3841 30.5958C17.4421 30.5382 17.5 30.4807 17.6159 30.4232C17.6739 30.4232 17.7318 30.4232 17.7318 30.4807C17.6739 30.9983 17.558 31.4584 17.3841 31.9185C17.2682 32.2061 17.1524 32.4936 16.9785 32.7812C16.8626 33.0112 16.7467 33.1837 16.6308 33.4138C16.2832 34.0464 15.8196 34.679 15.356 35.2541C15.2981 35.3692 15.1822 35.4267 15.1242 35.4842C14.8345 35.7142 14.6606 35.9443 14.4288 36.1743C13.9073 36.7494 13.3279 37.3245 12.7484 37.8421C12.5166 38.0146 12.2848 38.1872 12.111 38.3597C11.8792 38.5322 11.7053 38.7623 11.4156 38.9348C11.1838 39.0498 11.01 39.2799 10.7202 39.3949C10.6043 39.4524 10.4884 39.5674 10.3726 39.6825C10.3726 39.6825 10.3146 39.74 10.3726 39.7975C10.3726 39.855 10.4305 39.855 10.4305 39.855C10.4884 39.855 10.5464 39.855 10.6043 39.855C10.7782 39.7975 10.952 39.7975 11.1259 39.74C11.2997 39.6825 11.5315 39.6249 11.7053 39.6249C11.8792 39.6249 12.111 39.6249 12.2848 39.5099C12.6325 39.5099 12.9222 39.3374 13.2699 39.2799C13.5596 39.2224 13.7914 39.1649 14.0812 39.1073C14.7186 38.9348 15.356 38.8198 15.9355 38.6473C15.9934 38.6473 16.1093 38.6473 16.1673 38.5898C16.2832 38.5898 16.3411 38.5322 16.457 38.5322C16.6888 38.4747 16.9206 38.3597 17.2103 38.2447C17.3841 38.1872 17.5 38.1297 17.6739 38.0722C17.7898 38.0146 17.9057 37.9571 18.0216 37.9571C18.3692 37.8996 18.601 37.7271 18.9487 37.6696C19.1226 37.6696 19.2384 37.5546 19.3543 37.497C19.76 37.267 20.2235 37.037 20.6292 36.8069C21.0348 36.5769 21.4404 36.3468 21.8461 36.1168C21.904 36.0593 22.0199 36.0018 22.0779 35.9443C22.2517 35.8292 22.4255 35.6567 22.5994 35.5417C22.7732 35.4267 22.9471 35.2541 23.063 35.0816C23.2368 34.8516 23.4106 34.679 23.6424 34.5065C23.9322 34.2189 24.2798 33.9314 24.5116 33.6438C24.7434 33.3563 25.0332 33.0687 25.2649 32.8387C25.6126 32.4361 25.9603 32.0335 26.3659 31.631C26.4239 31.5734 26.4239 31.5159 26.4818 31.5159C26.7136 31.3434 26.8875 31.1134 27.0613 30.8833C27.2351 30.6533 27.409 30.4232 27.6408 30.2507C27.6987 30.1932 27.7567 30.0782 27.8146 30.0207C27.8726 29.9631 27.8726 29.8481 27.9305 29.8481C28.1043 29.6756 28.2202 29.388 28.3361 29.1005C28.51 28.6979 28.6838 28.3528 28.9156 28.0078C28.9735 27.8928 29.0315 27.8352 29.1474 27.7202C29.3212 27.5477 29.3792 27.3752 29.4371 27.1451C29.4371 27.0301 29.4951 26.9726 29.553 26.8576C29.7269 26.57 29.8428 26.2249 30.0745 25.9374C30.0745 25.9374 30.1325 25.8799 30.1325 25.8224C30.2484 25.4198 30.5381 25.0747 30.654 24.6722C30.712 24.4996 30.7699 24.3846 30.8279 24.2121C30.9437 23.6945 31.1755 23.2344 31.3494 22.7168C31.4653 22.5443 31.4653 22.3717 31.5232 22.1417C31.5232 21.7391 31.6391 21.3365 31.755 20.9915C31.8709 20.5889 31.9288 20.2438 31.9868 19.8413C32.0447 19.6112 31.9868 19.4387 31.9868 19.2086C32.0447 19.0361 32.0447 18.8636 32.1027 18.691C32.1606 18.2885 32.1606 17.9434 32.1606 17.5983C32.1027 17.2533 32.1606 16.9082 32.1027 16.5056C32.1027 16.1606 32.0447 15.8155 31.9868 15.4704C31.9288 15.2404 31.9288 14.9528 31.813 14.7228C31.813 14.6653 31.755 14.6653 31.755 14.6078C31.6971 14.1477 31.5232 13.7451 31.3494 13.3425C31.2335 12.9975 31.1755 12.5949 31.0017 12.1923C30.9437 12.1348 30.9437 12.0198 30.9437 11.9623C30.9437 11.9048 30.9437 11.8473 30.8858 11.7898C30.712 11.5022 30.5961 11.2146 30.4802 10.8696C30.3643 10.5245 30.1904 10.237 30.0745 9.94941C30.0166 9.83438 29.9586 9.71936 29.8428 9.60434C29.6689 9.20177 29.3792 8.8567 29.2633 8.45413C29.2633 8.39662 29.2053 8.28159 29.1474 8.22408C28.9156 7.82151 28.7418 7.47644 28.51 7.07387C28.452 7.01636 28.452 6.95885 28.3941 6.84383C28.0464 6.44125 27.8146 5.92366 27.5249 5.52108C27.2351 5.061 26.9454 4.65842 26.5977 4.19833C26.5398 4.14082 26.4818 4.08331 26.4818 4.0258C26.25 3.68074 26.0183 3.27816 25.7285 2.99061C25.3808 2.64554 25.149 2.18546 24.8593 1.78288C24.8014 1.72537 24.8014 1.66786 24.6855 1.61035C24.2798 1.26529 24.0481 0.862714 23.7004 0.517649C23.6424 0.460138 23.5845 0.402626 23.5845 0.345115V0.287605H23.6424C23.7583 0.287605 23.8163 0.345115 23.9322 0.345115C23.9901 0.230094 23.9322 0.172582 23.9322 0.115071C24.0481 0.115071 24.106 0.172584 24.1639 0.287605C24.0481 0.345116 24.106 0.460138 24.1639 0.575159C24.1639 0.575159 24.106 0.575159 24.0481 0.575159C23.9901 0.575159 23.9322 0.632668 23.9901 0.690179C24.0481 0.8052 24.106 0.862712 24.2798 0.920223C24.2219 0.805201 24.2219 0.690181 24.1639 0.575159Z" fill="black"/>
</svg>
